<svg width="300" height="200" xmlns="http://www.w3.org/2000/svg">
  <defs>
    <linearGradient id="digitalGradient" x1="0%" y1="0%" x2="100%" y2="100%">
      <stop offset="0%" style="stop-color:#001100;stop-opacity:1" />
      <stop offset="50%" style="stop-color:#004400;stop-opacity:1" />
      <stop offset="100%" style="stop-color:#00ff88;stop-opacity:1" />
    </linearGradient>
  </defs>
  <rect width="100%" height="100%" fill="#000"/>
  <rect x="50" y="50" width="200" height="100" fill="url(#digitalGradient)"/>
  <rect x="60" y="60" width="20" height="20" fill="#00ff88" opacity="0.8"/>
  <rect x="90" y="60" width="20" height="20" fill="#00ff88" opacity="0.6"/>
  <rect x="120" y="60" width="20" height="20" fill="#00ff88" opacity="0.8"/>
  <rect x="150" y="60" width="20" height="20" fill="#00ff88" opacity="0.6"/>
  <rect x="180" y="60" width="20" height="20" fill="#00ff88" opacity="0.8"/>
  <rect x="70" y="90" width="20" height="20" fill="#00ff88" opacity="0.6"/>
  <rect x="100" y="90" width="20" height="20" fill="#00ff88" opacity="0.8"/>
  <rect x="130" y="90" width="20" height="20" fill="#00ff88" opacity="0.6"/>
  <rect x="160" y="90" width="20" height="20" fill="#00ff88" opacity="0.8"/>
  <rect x="190" y="90" width="20" height="20" fill="#00ff88" opacity="0.6"/>
  <line x1="50" y1="70" x2="250" y2="70" stroke="#00ff88" stroke-width="1" stroke-dasharray="2,2"/>
  <line x1="50" y1="110" x2="250" y2="110" stroke="#00ff88" stroke-width="1" stroke-dasharray="2,2"/>
</svg>